#!OML:ASF E:\CV Data\Top Level 1\Subject 1\Session 1\player.ASF
:FULLY-SPECIFIED
:DEGREES
409
root 5.37218 16.632 -22.1026 10.8398 4.87725 -2.49306
lowerback 30.0249 -0.6349 4.59814
upperback 6.45951 1.03328 3.76795
thorax -9.22289 0.419148 1.2215
lowerneck -14.553 -9.2597 -14.1152
upperneck -18.2879 -9.0663 18.1132
head -1.4302 -4.15651 7.65731
rclavicle 1.19271e-014 7.15625e-015
rhumerus -11.5683 23.8692 -83.3711
rradius 92.3878
rwrist 12.4096
rhand -36.555 22.2974
rfingers 7.12502
rthumb -9.64529 -7.46175
lclavicle 1.19271e-014 7.15625e-015
lhumerus -2.12824 -24.8827 100.949
lradius 66.1468
lwrist 47.3663
lhand -13.3407 29.0261
lfingers 7.12502
lthumb 12.7648 58.6159
rfemur -41.3532 -4.51937 21.1874
rtibia 56.1139
rfoot -21.2316 -15.4393
rtoes -4.24708
lfemur -41.3506 5.67204 -12.8209
ltibia 49.7193
lfoot -16.4501 -3.81285
ltoes -8.98635
410
root 5.38778 16.6167 -22.1015 10.6865 4.83077 -2.50062
lowerback 29.9096 -0.622777 4.64253
upperback 6.40024 1.06485 3.83731
thorax -9.23493 0.432963 1.26288
lowerneck -14.6679 -9.234 -14.097
upperneck -18.1199 -9.05416 17.8379
head -1.39109 -4.13708 7.55642
rclavicle 3.97569e-015 2.94201e-014
rhumerus -10.9862 23.804 -83.4093
rradius 91.1107
rwrist 12.3254
rhand -37.1038 22.6381
rfingers 7.12502
rthumb -10.1748 -7.0959
lclavicle 3.97569e-015 2.94201e-014
lhumerus -1.55891 -25.2318 101.002
lradius 65.2096
lwrist 45.9491
lhand -14.3712 29.4189
lfingers 7.12502
lthumb 11.7712 59.0682
rfemur -41.2899 -4.574 21.1344
rtibia 56.3203
rfoot -21.3412 -15.3902
rtoes -4.34618
lfemur -41.3183 5.6306 -12.8497
ltibia 50.0134
lfoot -16.5899 -3.66862
ltoes -9.06966
411
root 5.40421 16.6006 -22.1008 10.5456 4.76646 -2.50889
lowerback 29.777 -0.610507 4.68924
upperback 6.33888 1.09544 3.90237
thorax -9.24074 0.446284 1.2983
lowerneck -14.7736 -9.19825 -14.064
upperneck -17.9424 -9.03337 17.5426
head -1.35397 -4.11455 7.44766
rclavicle -1.35174e-014 -3.57812e-014
rhumerus -10.3645 23.8263 -83.4171
rradius 89.7698
rwrist 12.5155
rhand -37.8311 23.1036
rfingers 7.12502
rthumb -10.8763 -6.59475
lclavicle -1.35174e-014 -3.57812e-014
lhumerus -0.997112 -25.4802 101.057
lradius 64.0594
lwrist 44.239
lhand -15.0563 29.7361
lfingers 7.12502
lthumb 11.1104 59.422
rfemur -41.2508 -4.62671 21.0785
rtibia 56.5342
rfoot -21.4458 -15.3263
rtoes -4.45864
lfemur -41.3044 5.60911 -12.8865
ltibia 50.3163
lfoot -16.7288 -3.52212
ltoes -9.16504
412
root 5.42118 16.5842 -22.0999 10.4025 4.71657 -2.51017
lowerback 29.6454 -0.611792 4.74183
upperback 6.2762 1.11027 3.96297
thorax -9.24819 0.452127 1.3311
lowerneck -14.8951 -9.15641 -14.0121
upperneck -17.7381 -9.00757 17.2323
head -1.30921 -4.08995 7.33019
rclavicle 7.95139e-015 4.77083e-015
rhumerus -9.71561 23.9368 -83.3985
rradius 88.418
rwrist 12.9009
rhand -38.6632 23.6
rfingers 7.12502
rthumb -11.6789 -6.05452
lclavicle 7.95139e-015 4.77083e-015
lhumerus -0.490863 -25.6055 101.123
lradius 62.836
lwrist 42.4698
lhand -15.4376 29.9411
lfingers 7.12502
lthumb 10.7427 59.6464
rfemur -41.2096 -4.70139 21.0149
rtibia 56.7553
rfoot -21.556 -15.255
rtoes -4.58579
lfemur -41.292 5.58384 -12.9335
ltibia 50.6243
lfoot -16.8712 -3.38634
ltoes -9.25826
413
root 5.43826 16.5679 -22.0989 10.2534 4.6575 -2.51023
lowerback 29.4975 -0.622734 4.7952
upperback 6.22644 1.10947 4.01169
thorax -9.23253 0.45097 1.35532
lowerneck -14.9936 -9.10066 -13.9401
upperneck -17.5504 -8.96624 16.9284
head -1.27481 -4.06063 7.21457
rclavicle -1.03368e-014 9.54166e-015
rhumerus -9.1045 24.1679 -83.3541
rradius 87.1624
rwrist 13.3686
rhand -39.5426 24.0705
rfingers 7.12502
rthumb -12.5268 -5.53402
lclavicle -1.03368e-014 9.54166e-015
lhumerus -0.0647083 -25.6093 101.182
lradius 61.6863
lwrist 40.892
lhand -15.7105 30.0495
lfingers 7.12502
lthumb 10.4795 59.7683
rfemur -41.1649 -4.77097 20.9475
rtibia 56.982
rfoot -21.6667 -15.1798
rtoes -4.72961
lfemur -41.2737 5.58208 -12.9861
ltibia 50.9391
lfoot -17.0183 -3.2666
ltoes -9.34475
414
root 5.45566 16.5511 -22.0978 10.1064 4.58859 -2.51232
lowerback 29.3421 -0.641216 4.85315
upperback 6.18534 1.09777 4.0492
thorax -9.2028 0.444755 1.3679
lowerneck -15.1212 -9.04224 -13.8534
upperneck -17.3467 -8.91903 16.6425
head -1.23099 -4.02881 7.10153
rclavicle -1.74931e-014 -8.74653e-015
rhumerus -8.47818 24.5074 -83.2909
rradius 85.9961
rwrist 13.811
rhand -40.3943 24.4941
rfingers 7.12502
rthumb -13.3479 -5.05841
lclavicle -1.74931e-014 -8.74653e-015
lhumerus 0.272327 -25.5229 101.234
lradius 60.7257
lwrist 39.7373
lhand -16.0622 30.1218
lfingers 7.12502
lthumb 10.1401 59.8574
rfemur -41.1266 -4.833 20.8795
rtibia 57.2158
rfoot -21.7758 -15.1027
rtoes -4.88284
lfemur -41.2606 5.60461 -13.0419
ltibia 51.2618
lfoot -17.1693 -3.16304
ltoes -9.42668
415
root 5.47319 16.5335 -22.0969 9.97023 4.46732 -2.51935
lowerback 29.1661 -0.649002 4.8947
upperback 6.15582 1.0905 4.07475
thorax -9.14954 0.441145 1.37431
lowerneck -15.2377 -8.97732 -13.7633
upperneck -17.1604 -8.861 16.3885
head -1.19247 -3.9935 7.00031
rclavicle 2.38542e-015 -3.81667e-014
rhumerus -7.89679 24.9711 -83.2044
rradius 85.004
rwrist 14.1315
rhand -41.1535 24.8696
rfingers 7.12502
rthumb -14.0796 -4.63343
lclavicle 2.38542e-015 -3.81667e-014
lhumerus 0.521832 -25.3824 101.265
lradius 60.0371
lwrist 39.1557
lhand -16.646 30.2368
lfingers 7.12502
lthumb 9.57692 59.9992
rfemur -41.1127 -4.84993 20.8095
rtibia 57.4578
rfoot -21.8796 -15.0165
rtoes -5.04233
lfemur -41.2584 5.68918 -13.1028
ltibia 51.5977
lfoot -17.3256 -3.07148
ltoes -9.50049
416
root 5.49078 16.5153 -22.0957 9.84075 4.3234 -2.52566
lowerback 28.9781 -0.653605 4.92595
upperback 6.14108 1.08105 4.0918
thorax -9.07333 0.437053 1.3774
lowerneck -15.4003 -8.91718 -13.6946
upperneck -16.9619 -8.79684 16.1947
head -1.13833 -3.95343 6.92068
rclavicle -1.35174e-014 1.27222e-014
rhumerus -7.29459 25.5256 -83.0894
rradius 84.1601
rwrist 14.3049
rhand -41.7838 25.2018
rfingers 7.12502
rthumb -14.6869 -4.25804
lclavicle -1.35174e-014 1.27222e-014
lhumerus 0.716918 -25.2122 101.269
lradius 59.6258
lwrist 39.1622
lhand -17.5115 30.4684
lfingers 7.12502
lthumb 8.74177 60.2673
rfemur -41.1117 -4.84921 20.7364
rtibia 57.7078
rfoot -21.9862 -14.9264
rtoes -5.19699
lfemur -41.2648 5.80566 -13.1693
ltibia 51.944
lfoot -17.4879 -2.99042
ltoes -9.57624
417
root 5.50839 16.4962 -22.0944 9.72296 4.1436 -2.53577
lowerback 28.785 -0.642973 4.94231
upperback 6.13746 1.08508 4.10873
thorax -8.98202 0.439795 1.38383
lowerneck -15.5907 -8.86947 -13.638
upperneck -16.7819 -8.74043 16.0338
head -1.08134 -3.91653 6.8529
rclavicle 3.18055e-015 2.94201e-014
rhumerus -6.67995 26.1411 -82.9305
rradius 83.4791
rwrist 14.3592
rhand -42.2719 25.4691
rfingers 7.12502
rthumb -15.1571 -3.95579
lclavicle 3.18055e-015 2.94201e-014
lhumerus 0.873055 -25.0077 101.266
lradius 59.4699
lwrist 39.6793
lhand -18.6027 30.7892
lfingers 7.12502
lthumb 7.68867 60.6294
rfemur -41.1319 -4.81285 20.6639
rtibia 57.9642
rfoot -22.0884 -14.8404
rtoes -5.36121
lfemur -41.2833 5.96767 -13.2381
ltibia 52.2995
lfoot -17.6567 -2.91827
ltoes -9.64086
418
root 5.52547 16.4772 -22.0926 9.60098 3.94143 -2.54283
lowerback 28.6127 -0.620154 4.94057
upperback 6.13927 1.10041 4.12506
thorax -8.89501 0.448123 1.39612
lowerneck -15.7793 -8.83042 -13.5996
upperneck -16.6386 -8.68779 15.9109
head -1.03104 -3.88169 6.80149
rclavicle -9.54166e-015 -3.73715e-014
rhumerus -6.08039 26.7768 -82.7415
rradius 82.9665
rwrist 14.3546
rhand -42.6588 25.7013
rfingers 7.12502
rthumb -15.5298 -3.69504
lclavicle -9.54166e-015 -3.73715e-014
lhumerus 1.0038 -24.7594 101.259
lradius 59.5128
lwrist 40.5542
lhand -19.7882 31.0911
lfingers 7.12502
lthumb 6.5443 60.97
rfemur -41.147 -4.7512 20.5872
rtibia 58.2227
rfoot -22.1964 -14.7608
rtoes -5.52427
lfemur -41.2902 6.16208 -13.3114
ltibia 52.6557
lfoot -17.8354 -2.85448
ltoes -9.70949
